<svg xmlns="http://www.w3.org/2000/svg" xmlns:xlink="http://www.w3.org/1999/xlink" viewBox="0 0 1280 960" width="1280" height="960" preserveAspectRatio="xMidYMid meet" style="width: 100%; height: 100%; transform: translate3d(0px, 0px, 0px); content-visibility: visible;"><defs><clipPath id="__lottie_element_106"><rect width="1280" height="960" x="0" y="0"></rect></clipPath><clipPath id="__lottie_element_117"><path d="M0,0 L1476,0 L1476,1472 L0,1472z"></path></clipPath><g id="__lottie_element_120"><g transform="matrix(4.679959774017334,0,0,4.679959774017334,793.8590087890625,1133.4630126953125)" opacity="1" style="display: block;"><g opacity="1" transform="matrix(1,0,0,1,0,0)"><path fill="rgb(76,186,60)" fill-opacity="1" d=" M35.90700149536133,-25.718000411987305 C34.48899841308594,-27.395000457763672 19.948999404907227,-18.215999603271484 11.234999656677246,-11.711999893188477 C9.362000465393066,-13.689000129699707 6.116000175476074,-14.845999717712402 -0.02199999988079071,-13.85200023651123 C-2.26200008392334,-13.489999771118164 -9.0649995803833,-12.42199993133545 -11.293000221252441,-8.663000106811523 C-19.81599998474121,-11.894000053405762 -37.14699935913086,-18.479999542236328 -41.409000396728516,-12.555000305175781 C-45.74100112915039,-6.5320000648498535 -40.32699966430664,21.959999084472656 -34.57400131225586,25.659000396728516 C-31.56999969482422,27.59000015258789 -17.20199966430664,18.354999542236328 -9.699000358581543,11.986000061035156 C-7.875,14.555999755859375 -4.701000213623047,15.109999656677246 3.2780001163482666,14.144000053405762 C14.961999893188477,12.729999542236328 15.03600025177002,9.883999824523926 15.119999885559082,9.597999572753906 C22.832000732421875,12.479999542236328 36.404998779296875,15.531000137329102 39.4379997253418,15.074999809265137 C41.02399826049805,14.836999893188477 41.91899871826172,13.145999908447266 42.323001861572266,10.605999946594238 C42.32699966430664,10.593000411987305 42.3380012512207,10.583000183105469 42.340999603271484,10.569999694824219 C43.87200164794922,2.559000015258789 42.979000091552734,-17.35300064086914 35.90700149536133,-25.718000411987305z"></path></g></g></g><mask id="__lottie_element_120_1" mask-type="alpha"><use xlink:href="#__lottie_element_120"></use></mask><clipPath id="__lottie_element_154"><path fill="#ffffff" clip-rule="nonzero" d=" M-71.63600158691406,-147.27099609375 C-139.13600158691406,-128.02099609375 -125.63600158691406,-97.02100372314453 -121.63600158691406,-29.520999908447266 C-117.63600158691406,37.979000091552734 -77.88600158691406,130.22900390625 -77.88600158691406,130.22900390625 C-77.88600158691406,130.22900390625 88.36399841308594,141.22900390625 88.36399841308594,141.22900390625 C88.36399841308594,141.22900390625 54.36399841308594,14.729000091552734 54.36399841308594,14.729000091552734 C54.36399841308594,14.729000091552734 34.11399841308594,14.979000091552734 18.86400032043457,7.979000091552734 C3.614000082015991,0.9789999723434448 3.864000082015991,-14.270999908447266 19.11400032043457,-19.270999908447266 C34.36399841308594,-24.270999908447266 65.61399841308594,-21.020999908447266 65.61399841308594,-21.020999908447266 C65.61399841308594,-21.020999908447266 85.11399841308594,-89.52100372314453 64.61399841308594,-136.77099609375 C44.11399841308594,-184.02099609375 -4.136000156402588,-166.52099609375 -71.63600158691406,-147.27099609375" fill-opacity="1"></path></clipPath><linearGradient id="__lottie_element_168" spreadMethod="pad" gradientUnits="userSpaceOnUse" x1="0" y1="-180.0780029296875" x2="3.062000036239624" y2="223.75"><stop offset="0%" stop-color="rgb(211,78,41)"></stop><stop offset="50%" stop-color="rgb(184,67,35)"></stop><stop offset="100%" stop-color="rgb(156,57,30)"></stop></linearGradient><clipPath id="__lottie_element_170"><path d="M0,0 L640,0 L640,640 L0,640z"></path></clipPath><clipPath id="__lottie_element_186"><path d="M0,0 L640,0 L640,640 L0,640z"></path></clipPath></defs><g clip-path="url(#__lottie_element_106)"><g clip-path="url(#__lottie_element_186)" style="display: none;"><g style="display: none;"><g><path></path></g></g><g style="display: none;"><g><path></path></g></g><g style="display: none;"><g><path></path></g></g><g style="display: none;"><g><path></path></g></g></g><g clip-path="url(#__lottie_element_170)" style="display: none;"><g style="display: none;"><g><path></path></g></g><g style="display: none;"><g><path></path></g></g><g style="display: none;"><g><path></path></g></g><g style="display: none;"><g><path></path></g></g></g><g transform="matrix(1,0,0,1,640,480)" opacity="1" style="display: block;"><g opacity="1" transform="matrix(1,0,0,1,0,0)"><path fill="url(#__lottie_element_168)" fill-opacity="1" d=" M331.5,0 C331.5,0 331.5,0 331.5,0 C331.5,182.95484924316406 182.95484924316406,331.5 0,331.5 C0,331.5 0,331.5 0,331.5 C-182.95484924316406,331.5 -331.5,182.95484924316406 -331.5,0 C-331.5,0 -331.5,0 -331.5,0 C-331.5,-182.95484924316406 -182.95484924316406,-331.5 0,-331.5 C0,-331.5 0,-331.5 0,-331.5 C182.95484924316406,-331.5 331.5,-182.95484924316406 331.5,0z"></path><path stroke-linecap="butt" stroke-linejoin="miter" fill-opacity="0" stroke-miterlimit="4" stroke="rgb(0,0,0)" stroke-opacity="1" stroke-width="0" d=" M331.5,0 C331.5,0 331.5,0 331.5,0 C331.5,182.95484924316406 182.95484924316406,331.5 0,331.5 C0,331.5 0,331.5 0,331.5 C-182.95484924316406,331.5 -331.5,182.95484924316406 -331.5,0 C-331.5,0 -331.5,0 -331.5,0 C-331.5,-182.95484924316406 -182.95484924316406,-331.5 0,-331.5 C0,-331.5 0,-331.5 0,-331.5 C182.95484924316406,-331.5 331.5,-182.95484924316406 331.5,0z"></path></g></g><g transform="matrix(1,0,0,1,640,480)" opacity="1" style="display: block;"><g opacity="1" transform="matrix(1,0,0,1,0,0)"><path fill="rgb(222,88,51)" fill-opacity="1" d=" M331.5,0 C331.5,0 331.5,0 331.5,0 C331.5,182.95484924316406 182.95484924316406,331.5 0,331.5 C0,331.5 0,331.5 0,331.5 C-182.95484924316406,331.5 -331.5,182.95484924316406 -331.5,0 C-331.5,0 -331.5,0 -331.5,0 C-331.5,-182.95484924316406 -182.95484924316406,-331.5 0,-331.5 C0,-331.5 0,-331.5 0,-331.5 C182.95484924316406,-331.5 331.5,-182.95484924316406 331.5,0z"></path><path stroke-linecap="butt" stroke-linejoin="miter" fill-opacity="0" stroke-miterlimit="4" stroke="rgb(0,0,0)" stroke-opacity="1" stroke-width="0" d=" M331.5,0 C331.5,0 331.5,0 331.5,0 C331.5,182.95484924316406 182.95484924316406,331.5 0,331.5 C0,331.5 0,331.5 0,331.5 C-182.95484924316406,331.5 -331.5,182.95484924316406 -331.5,0 C-331.5,0 -331.5,0 -331.5,0 C-331.5,-182.95484924316406 -182.95484924316406,-331.5 0,-331.5 C0,-331.5 0,-331.5 0,-331.5 C182.95484924316406,-331.5 331.5,-182.95484924316406 331.5,0z"></path></g></g><g clip-path="url(#__lottie_element_117)" transform="matrix(0.47999998927116394,0,0,0.47999998927116394,285.760009765625,126.72000122070312)" opacity="1" style="display: block;"><g transform="matrix(4.679959774017334,0,0,4.679959774017334,833.586181640625,701.3333129882812)" opacity="1" style="display: block;"><g opacity="1" transform="matrix(1,0,0,1,-20,7)"><path fill="rgb(251,251,249)" fill-opacity="1" d=" M97.56500244140625,-101.06099700927734 C124.03099822998047,-75.50299835205078 140.5,-39.659000396728516 140.5,0 C140.5,77.54194641113281 77.54194641113281,140.5 0,140.5 C-77.54194641113281,140.5 -140.5,77.54194641113281 -140.5,0 C-140.5,-77.54194641113281 -77.54194641113281,-140.5 0,-140.5 C0,-140.5 0,-140.5 0,-140.5 C37.882999420166016,-140.5 72.28500366210938,-125.4729995727539 97.56500244140625,-101.06099700927734"></path><path stroke-linecap="round" stroke-linejoin="round" fill-opacity="0" stroke="rgb(222,88,51)" stroke-opacity="1" stroke-width="14" d=" M97.56500244140625,-101.06099700927734 C124.03099822998047,-75.50299835205078 140.5,-39.659000396728516 140.5,0 C140.5,77.54194641113281 77.54194641113281,140.5 0,140.5 C-77.54194641113281,140.5 -140.5,77.54194641113281 -140.5,0 C-140.5,-77.54194641113281 -77.54194641113281,-140.5 0,-140.5 C0,-140.5 0,-140.5 0,-140.5 C37.882999420166016,-140.5 72.28500366210938,-125.4729995727539 97.56500244140625,-101.06099700927734"></path></g></g><g transform="matrix(4.679959774017334,0,0,4.679959774017334,740.0780029296875,733.4550170898438)" opacity="1" style="display: block;"><g opacity="1" transform="matrix(1,0,0,1,0,0)"><path fill="rgb(222,88,51)" fill-opacity="1" d=" M0,-122.39800262451172 C67.55146026611328,-122.39800262451172 122.39800262451172,-67.55146026611328 122.39800262451172,0 C122.39800262451172,67.55146026611328 67.55146026611328,122.39800262451172 0,122.39800262451172 C-67.55146026611328,122.39800262451172 -122.39800262451172,67.55146026611328 -122.39800262451172,0 C-122.39800262451172,-67.55146026611328 -67.55146026611328,-122.39800262451172 0,-122.39800262451172z"></path></g></g><g transform="matrix(4.679959774017334,0,0,4.679959774017334,672.7630004882812,839.489990234375)" opacity="1" style="display: block;"><g opacity="1" transform="matrix(1,0,0,1,0,0)"><path fill="rgb(255,255,255)" fill-opacity="1" d=" M-44.2400016784668,19.82699966430664 C-36.53300094604492,50.733001708984375 -31.68000030517578,69.29499816894531 -28.430999755859375,81.0719985961914 C-25.18199920654297,92.8489990234375 -23.538999557495117,97.84100341796875 -22.253000259399414,101.60900115966797 C-22.253000259399414,101.60900115966797 11.390999794006348,102.23200225830078 11.390999794006348,102.23200225830078 C11.390999794006348,102.23200225830078 45.034000396728516,102.85399627685547 45.034000396728516,102.85399627685547 C32.5620002746582,76.08399963378906 24.513999938964844,55.41999816894531 21.02199935913086,41.224998474121094 C17.58799934387207,27.267000198364258 18.575000762939453,19.643999099731445 24.059999465942383,18.461000442504883 C34.36399841308594,16.23900032043457 -51.41999816894531,-8.96500015258789 -44.2400016784668,19.82699966430664z"></path></g></g><g clip-path="url(#__lottie_element_154)" transform="matrix(4.679959774017334,0,0,4.679959774017334,672.7630004882812,839.489990234375)" opacity="1" style="display: block;"><g opacity="1" transform="matrix(1,0,0,1,0,0)"><path fill="rgb(255,255,255)" fill-opacity="1" d=" M-26.003000259399414,-96.0469970703125 C-45.31800079345703,-87.81999969482422 -53.52899932861328,-73.88999938964844 -55.45899963378906,-56.013999938964844 C-57.70899963378906,-35.172000885009766 -51.41999816894531,-8.96500015258789 -44.2400016784668,19.82699966430664 C-36.53300094604492,50.733001708984375 16.11400032043457,23.104000091552734 24.059999465942383,18.461000442504883 C33.1609992980957,13.142999649047852 50.930999755859375,-3.114000082015991 55.49800109863281,-29.194000244140625 C56.558998107910156,-35.25 55.744998931884766,-48.2760009765625 51.742000579833984,-61.70500183105469 C46.71099853515625,-78.58200073242188 36.45000076293945,-96.12899780273438 17.6299991607666,-101.43199920654297 C3.385999917984009,-105.44599914550781 -16.475000381469727,-100.1050033569336 -26.003000259399414,-96.0469970703125z"></path></g></g><g transform="matrix(4.679959774017334,0,0,4.679959774017334,618.4996337890625,341.031494140625)" opacity="1" style="display: block;"><g opacity="1" transform="matrix(1,0,0,1,0,0)"><path fill="rgb(255,255,255)" fill-opacity="1" d=" M31.3700008392334,12.932999610900879 C27.46500015258789,3.2060000896453857 19.59600067138672,-3.694000005722046 10.133000373840332,-8.100000381469727 C-1.059999942779541,-13.312000274658203 -14.932000160217285,-15.213000297546387 -28.426000595092773,-13.39799976348877 C-29.361000061035156,-13.272000312805176 -29.378000259399414,-11.79699993133545 -28.604999542236328,-11.53499984741211 C-26.194000244140625,-10.718000411987305 -23.37700080871582,-9.404000282287598 -21.256999969482422,-7.531000137329102 C-24.30500030517578,-5.927999973297119 -28.766000747680664,-3.181999921798706 -31.243000030517578,0.2329999953508377 C-31.582000732421875,0.699999988079071 -31.209999084472656,1.5299999713897705 -30.5,1.3899999856948853 C-22.90999984741211,-0.1120000034570694 -15.199999809265137,0.032999999821186066 -9.178999900817871,2.4590001106262207 C-1.6369999647140503,5.497000217437744 0.6930000185966492,11.097000122070312 1.4259999990463257,14.069000244140625 C1.4259999990463257,14.069000244140625 31.3700008392334,12.932999610900879 31.3700008392334,12.932999610900879z"></path></g></g><g transform="matrix(4.679959774017334,0,0,4.679959774017334,887.8049926757812,800.1729736328125)" opacity="1" style="display: block;"><g opacity="1" transform="matrix(1,0,0,1,0,0)"><path fill="rgb(255,204,51)" fill-opacity="1" d=" M-51.44300079345703,-4.2230000495910645 C-50.185001373291016,-9.694999694824219 -44.32400131225586,-20.0049991607666 -23.39299964904785,-19.7549991607666 C-12.810999870300293,-19.798999786376953 0.33399999141693115,-19.759000778198242 9.04800033569336,-20.749000549316406 C22,-22.219999313354492 31.613000869750977,-25.35300064086914 38.02000045776367,-27.795000076293945 C47.08000183105469,-31.250999450683594 50.29600143432617,-30.481000900268555 51.42300033569336,-28.413000106811523 C52.6619987487793,-26.139999389648438 51.202999114990234,-22.215999603271484 48.0369987487793,-18.604000091552734 C41.9900016784668,-11.704000473022461 31.118000030517578,-6.35699987411499 11.918000221252441,-4.769999980926514 C-7.2820000648498535,-3.183000087738037 -20.00200080871582,-8.333000183105469 -25.476999282836914,0.052000001072883606 C-27.83799934387207,3.6679999828338623 -26.01300048828125,12.192000389099121 -7.445000171661377,14.87600040435791 C17.645000457763672,18.496999740600586 38.25199890136719,10.512999534606934 40.79800033569336,15.335000038146973 C43.34400177001953,20.156999588012695 28.67799949645996,29.968000411987305 3.546999931335449,30.17300033569336 C-21.583999633789062,30.378999710083008 -37.28099822998047,21.374000549316406 -42.847999572753906,16.898000717163086 C-49.90999984741211,11.218999862670898 -53.07099914550781,2.938999891281128 -51.44300079345703,-4.2230000495910645z"></path></g></g><g transform="matrix(4.679959774017334,0,0,4.679959774017334,-1781.2755126953125,-4884.099609375)" opacity="1" style="display: block;"><g opacity="1" transform="matrix(1,0,0,1,564.0650024414062,1169.0889892578125)"><g opacity="1" transform="matrix(1,0,0,1,0,0)"><path fill="rgb(68,89,149)" fill-opacity="1" d=" M1.281999945640564,-3.5290000438690186 C5.633999824523926,-3.5290000438690186 9.161999702453613,0.012000000104308128 9.161999702453613,4.380000114440918 C9.161999702453613,8.748000144958496 5.633999824523926,12.288999557495117 1.281999945640564,12.288999557495117 C-3.069999933242798,12.288999557495117 -6.5980000495910645,8.748000144958496 -6.5980000495910645,4.380000114440918 C-6.5980000495910645,0.012000000104308128 -3.069999933242798,-3.5290000438690186 1.281999945640564,-3.5290000438690186z"></path></g></g></g><g transform="matrix(4.679959774017334,0,0,4.679959774017334,-1781.2755126953125,-4884.099609375)" opacity="1" style="display: block;"><g opacity="1" transform="matrix(1,0,0,1,567.5880126953125,1166.47900390625)"><g opacity="1" transform="matrix(1,0,0,1,0,0)"><path fill="rgb(255,255,255)" fill-opacity="1" d=" M3.239000082015991,4.375999927520752 C3.239000082015991,3.25 2.318000078201294,2.3380000591278076 1.1920000314712524,2.3380000591278076 C0.06599999964237213,2.3380000591278076 -0.8460000157356262,3.25 -0.8560000061988831,4.375999927520752 C-0.8560000061988831,5.501999855041504 0.06599999964237213,6.414000034332275 1.1920000314712524,6.414000034332275 C2.3269999027252197,6.414000034332275 3.239000082015991,5.501999855041504 3.239000082015991,4.375999927520752z"></path></g></g></g><g transform="matrix(4.679959774017334,0,0,4.679959774017334,-1777.830322265625,-4860.796875)" opacity="1" style="display: block;"><g opacity="1" transform="matrix(1,0,0,1,502.44500732421875,1174.5419921875)"><g opacity="1" transform="matrix(1,0,0,1,0,0)"><path fill="rgb(68,89,149)" fill-opacity="1" d=" M0,-9.1899995803833 C5.087965965270996,-9.1899995803833 9.218999862670898,-5.071960926055908 9.218999862670898,0 C9.218999862670898,5.071960926055908 5.087965965270996,9.1899995803833 0,9.1899995803833 C-5.087965965270996,9.1899995803833 -9.218999862670898,5.071960926055908 -9.218999862670898,0 C-9.218999862670898,-5.071960926055908 -5.087965965270996,-9.1899995803833 0,-9.1899995803833z"></path><g opacity="1" transform="matrix(1,0,0,1,0,0)"></g></g></g></g><g transform="matrix(4.679959774017334,0,0,4.679959774017334,-1777.830322265625,-4860.796875)" opacity="1" style="display: block;"><g opacity="1" transform="matrix(1,0,0,1,506.55999755859375,1171.4949951171875)"><g opacity="1" transform="matrix(1,0,0,1,0,0)"><path fill="rgb(255,255,255)" fill-opacity="1" d=" M2.38700008392334,0 C2.38700008392334,-1.309999942779541 1.3200000524520874,-2.378000020980835 0,-2.378000020980835 C-1.309999942779541,-2.378000020980835 -2.377000093460083,-1.3200000524520874 -2.38700008392334,0 C-2.38700008392334,1.309999942779541 -1.3200000524520874,2.378000020980835 0,2.378000020980835 C1.3200000524520874,2.378000020980835 2.38700008392334,1.309999942779541 2.38700008392334,0z"></path></g></g></g><g transform="matrix(4.679959774017334,0,0,4.679959774017334,536.0089721679688,517.9929809570312)" opacity="1" style="display: block;"><g opacity="1" transform="matrix(1,0,0,1,0,0)"><path fill="rgb(68,89,149)" fill-opacity="1" d=" M-1.5379999876022339,-0.8199999928474426 C3.4019999504089355,-2.884000062942505 7.283999919891357,-2.617000102996826 10.027999877929688,-1.968000054359436 C10.605999946594238,-1.8309999704360962 11.006999969482422,-2.453000068664551 10.545000076293945,-2.8259999752044678 C8.414999961853027,-4.544000148773193 3.6480000019073486,-6.677000045776367 -2.569999933242798,-4.357999801635742 C-8.116999626159668,-2.2899999618530273 -10.732000350952148,2.006999969482422 -10.746999740600586,4.831999778747559 C-10.75100040435791,5.498000144958496 -9.380000114440918,5.554999828338623 -9.026000022888184,4.991000175476074 C-8.069000244140625,3.4679999351501465 -6.478000164031982,1.24399995803833 -1.5379999876022339,-0.8199999928474426z"></path></g></g><g transform="matrix(4.679959774017334,0,0,4.679959774017334,840.7559814453125,493.3330078125)" opacity="1" style="display: block;"><g opacity="1" transform="matrix(1,0,0,1,0,0)"><path fill="rgb(68,89,149)" fill-opacity="1" d=" M-9.385000228881836,1.5130000114440918 C-7.982999801635742,-0.7829999923706055 -4.875,-2.553999900817871 0.21199999749660492,-2.553999900817871 C5.298999786376953,-2.553999900817871 7.691999912261963,-0.5299999713897705 9.348999977111816,1.7269999980926514 C9.685999870300293,2.186000108718872 9.175999641418457,2.7269999980926514 8.652999877929688,2.500999927520752 C8.527000427246094,2.447000026702881 8.39900016784668,2.3910000324249268 8.270000457763672,2.3340001106262207 C6.409999847412109,1.5219999551773071 4.125,0.5249999761581421 0.21199999749660492,0.4690000116825104 C-3.9739999771118164,0.4099999964237213 -6.611999988555908,1.4579999446868896 -8.27400016784668,2.3610000610351562 C-8.833999633789062,2.6659998893737793 -9.717000007629395,2.056999921798706 -9.385000228881836,1.5130000114440918z"></path></g></g><g transform="matrix(4.679959774017334,0,0,4.679959774017334,793.8590087890625,1133.4630126953125)" opacity="1" style="display: block;"><g opacity="1" transform="matrix(1,0,0,1,0,0)"><path fill="rgb(76,186,60)" fill-opacity="1" d=" M35.90700149536133,-25.718000411987305 C34.48899841308594,-27.395000457763672 19.948999404907227,-18.215999603271484 11.234999656677246,-11.711999893188477 C9.362000465393066,-13.689000129699707 6.116000175476074,-14.845999717712402 -0.02199999988079071,-13.85200023651123 C-2.26200008392334,-13.489999771118164 -9.0649995803833,-12.42199993133545 -11.293000221252441,-8.663000106811523 C-19.81599998474121,-11.894000053405762 -37.14699935913086,-18.479999542236328 -41.409000396728516,-12.555000305175781 C-45.74100112915039,-6.5320000648498535 -40.32699966430664,21.959999084472656 -34.57400131225586,25.659000396728516 C-31.56999969482422,27.59000015258789 -17.20199966430664,18.354999542236328 -9.699000358581543,11.986000061035156 C-7.875,14.555999755859375 -4.701000213623047,15.109999656677246 3.2780001163482666,14.144000053405762 C14.961999893188477,12.729999542236328 15.03600025177002,9.883999824523926 15.119999885559082,9.597999572753906 C22.832000732421875,12.479999542236328 36.404998779296875,15.531000137329102 39.4379997253418,15.074999809265137 C41.02399826049805,14.836999893188477 41.91899871826172,13.145999908447266 42.323001861572266,10.605999946594238 C42.32699966430664,10.593000411987305 42.3380012512207,10.583000183105469 42.340999603271484,10.569999694824219 C43.87200164794922,2.559000015258789 42.979000091552734,-17.35300064086914 35.90700149536133,-25.718000411987305z"></path></g></g><g mask="url(#__lottie_element_120_1)" style="display: block;"><g transform="matrix(4.679959774017334,0,0,4.679959774017334,793.18701171875,1169.27294921875)" opacity="1"><g opacity="1" transform="matrix(1,0,0,1,0,0)"><path fill="rgb(60,168,43)" fill-opacity="1" d=" M18.56999969482422,-2.500999927520752 C18.56999969482422,-14.229000091552734 15.526000022888184,-17.44700050354004 12.534000396728516,-17.775999069213867 C12.861000061035156,-17.19300079345703 13.12399959564209,-16.57699966430664 13.347999572753906,-15.95199966430664 C14.446999549865723,-12.876999855041504 16.238000869750977,-3.0950000286102295 14.883999824523926,-0.6790000200271606 C13.529999732971191,1.7369999885559082 4.73199987411499,2.9040000438690186 -0.6949999928474426,2.997999906539917 C-6.122000217437744,3.0910000801086426 -7.34499979019165,1.1069999933242798 -8.444000244140625,-1.968000054359436 C-9.324000358581543,-4.427999973297119 -9.756999969482422,-10.211999893188477 -9.746000289916992,-13.52299976348877 C-9.892999649047852,-16.76099967956543 -9.14799976348877,-18.610000610351562 -6.257999897003174,-19.881999969482422 C-8.864999771118164,-22.746999740600586 -11.663999557495117,-21.594999313354492 -12.590999603271484,-18.082000732421875 C-12.590999603271484,-18.082000732421875 -14.505000114440918,-8.95199966430664 -11.711999893188477,0.41200000047683716 C-10.895000457763672,3.1510000228881836 -31.351999282836914,15.340999603271484 -34.02199935913086,13.243000030517578 C-37.108001708984375,10.819000244140625 -42.78799819946289,-15.057999610900879 -38.75699996948242,-21.437999725341797 C-38.48400115966797,-21.8700008392334 -37.92599868774414,-22.15999984741211 -37.159000396728516,-22.336000442504883 C-39.66299819946289,-23.243000030517578 -42.04399871826172,-22.930999755859375 -42.89799880981445,-21.743999481201172 C-47.22999954223633,-15.720999717712402 -44.707000732421875,18.933000564575195 -38.95399856567383,22.631999969482422 C-35.95000076293945,24.562999725341797 -18.80500030517578,13.892999649047852 -11.302000045776367,7.52400016784668 C-7.396999835968018,10.916000366210938 13.937999725341797,10.104000091552734 15.638999938964844,4.328999996185303 C23.35099983215332,7.210999965667725 37.138999938964844,9.972999572753906 40.17399978637695,9.53600025177002 C45.38100051879883,8.786999702453613 46.91899871826172,2.119999885559082 42.46699905395508,2.9539999961853027 C41.7400016784668,5.480999946594238 18.56999969482422,0.3089999854564667 18.56999969482422,-2.500999927520752z"></path></g></g></g></g><g transform="matrix(5.999998569488525,0,0,5.999998569488525,832.1851196289062,289.1851501464844)" opacity="1" style="display: block;"><g opacity="1" transform="matrix(1,0,0,1,0,0)"><path fill="rgb(222,88,51)" fill-opacity="1" d=" M5.626999855041504,-20.007999420166016 C3.9820001125335693,-25.577999114990234 -3.9820001125335693,-25.577999114990234 -5.626999855041504,-20.007999420166016 C-5.626999855041504,-20.007999420166016 -5.701000213623047,-19.733999252319336 -5.701000213623047,-19.733999252319336 C-5.701000213623047,-19.733999252319336 -7.493000030517578,-12.567000389099121 -7.493000030517578,-12.567000389099121 C-8.118000030517578,-10.067999839782715 -10.067999839782715,-8.118000030517578 -12.567000389099121,-7.493000030517578 C-12.567000389099121,-7.493000030517578 -19.733999252319336,-5.701000213623047 -19.733999252319336,-5.701000213623047 C-25.66900062561035,-4.2170000076293945 -25.66900062561035,4.2170000076293945 -19.733999252319336,5.701000213623047 C-19.733999252319336,5.701000213623047 -12.567000389099121,7.493000030517578 -12.567000389099121,7.493000030517578 C-10.067999839782715,8.118000030517578 -8.118000030517578,10.069000244140625 -7.493000030517578,12.567999839782715 C-7.493000030517578,12.567999839782715 -5.701000213623047,19.733999252319336 -5.701000213623047,19.733999252319336 C-4.2170000076293945,25.66900062561035 4.2170000076293945,25.66900062561035 5.701000213623047,19.733999252319336 C5.701000213623047,19.733999252319336 7.493000030517578,12.567999839782715 7.493000030517578,12.567999839782715 C8.118000030517578,10.069000244140625 10.069000244140625,8.118000030517578 12.567999839782715,7.493000030517578 C12.567999839782715,7.493000030517578 19.733999252319336,5.701000213623047 19.733999252319336,5.701000213623047 C25.66900062561035,4.2170000076293945 25.66900062561035,-4.2170000076293945 19.733999252319336,-5.701000213623047 C19.733999252319336,-5.701000213623047 12.567999839782715,-7.493000030517578 12.567999839782715,-7.493000030517578 C10.069000244140625,-8.118000030517578 8.118000030517578,-10.067999839782715 7.493000030517578,-12.567000389099121 C7.493000030517578,-12.567000389099121 5.701000213623047,-19.733999252319336 5.701000213623047,-19.733999252319336 C5.701000213623047,-19.733999252319336 5.626999855041504,-20.007999420166016 5.626999855041504,-20.007999420166016z"></path></g></g><g transform="matrix(0.6899999976158142,0,0,0.6899999976158142,832.8358154296875,289.0719909667969)" opacity="1" style="display: block;"><g opacity="1" transform="matrix(1,0,0,1,0,0)"><path fill="rgb(255,255,255)" fill-opacity="1" d=" M13.680999755859375,-157.5330047607422 C10.315999984741211,-170.99400329589844 -8.8149995803833,-170.99400329589844 -12.180000305175781,-157.5330047607422 C-12.180000305175781,-157.5330047607422 -17.12299919128418,-137.76199340820312 -17.12299919128418,-137.76199340820312 C-17.12299919128418,-137.76199340820312 -24.73699951171875,-107.302001953125 -24.73699951171875,-107.302001953125 C-34.68600082397461,-67.50800323486328 -65.75800323486328,-36.4370002746582 -105.552001953125,-26.488000869750977 C-105.552001953125,-26.488000869750977 -135.1540069580078,-19.086999893188477 -135.1540069580078,-19.086999893188477 C-135.1540069580078,-19.086999893188477 -155.78199768066406,-13.930000305175781 -155.78199768066406,-13.930000305175781 C-169.2429962158203,-10.5649995803833 -169.2429962158203,8.5649995803833 -155.78199768066406,11.930000305175781 C-155.78199768066406,11.930000305175781 -133.56900024414062,17.483999252319336 -133.56900024414062,17.483999252319336 C-133.56900024414062,17.483999252319336 -105.552001953125,24.488000869750977 -105.552001953125,24.488000869750977 C-65.75800323486328,34.4370002746582 -34.68600082397461,65.50800323486328 -24.73699951171875,105.302001953125 C-24.73699951171875,105.302001953125 -17.714000701904297,133.39599609375 -17.714000701904297,133.39599609375 C-17.714000701904297,133.39599609375 -12.180000305175781,155.5330047607422 -12.180000305175781,155.5330047607422 C-8.8149995803833,168.99400329589844 10.315999984741211,168.99400329589844 13.680999755859375,155.5330047607422 C13.680999755859375,155.5330047607422 19.525999069213867,132.14999389648438 19.525999069213867,132.14999389648438 C19.525999069213867,132.14999389648438 26.238000869750977,105.302001953125 26.238000869750977,105.302001953125 C36.1870002746582,65.50800323486328 67.25900268554688,34.4370002746582 107.0530014038086,24.488000869750977 C107.0530014038086,24.488000869750977 132.75799560546875,18.062000274658203 132.75799560546875,18.062000274658203 C132.75799560546875,18.062000274658203 157.2830047607422,11.930000305175781 157.2830047607422,11.930000305175781 C170.74400329589844,8.5649995803833 170.74400329589844,-10.5649995803833 157.2830047607422,-13.930000305175781 C157.2830047607422,-13.930000305175781 134.81399536132812,-19.54800033569336 134.81399536132812,-19.54800033569336 C134.81399536132812,-19.54800033569336 107.0530014038086,-26.488000869750977 107.0530014038086,-26.488000869750977 C67.25900268554688,-36.4370002746582 36.1870002746582,-67.50800323486328 26.238000869750977,-107.302001953125 C26.238000869750977,-107.302001953125 18.464000701904297,-138.3990020751953 18.464000701904297,-138.3990020751953 C18.464000701904297,-138.3990020751953 13.680999755859375,-157.5330047607422 13.680999755859375,-157.5330047607422z"></path></g></g></g></svg>